<svg xmlns="http://www.w3.org/2000/svg" viewBox="0 0 100 100">
  <rect width="100" height="100" fill="#060B18"/>
  <g transform="translate(50,52)" fill="#F97316">
    <!-- Left kirpan -->
    <path d="M-38,-28 C-36,-26 -22,2 -20,8 L-17,8 C-16,4 -28,-24 -32,-30 Z" opacity="0.9"/>
    <path d="M-20,8 L-21,14 L-18,14 L-17,8 Z"/>
    <!-- Right kirpan -->
    <path d="M38,-28 C36,-26 22,2 20,8 L17,8 C16,4 28,-24 32,-30 Z" opacity="0.9"/>
    <path d="M20,8 L21,14 L18,14 L17,8 Z"/>
    <!-- Chakkar ring -->
    <circle cx="0" cy="0" r="19" fill="none" stroke="#F97316" stroke-width="3"/>
    <!-- Central khanda blade -->
    <path d="M0,-36 L4.5,-18 L4,12 L0,18 L-4,12 L-4.5,-18 Z"/>
    <!-- Khanda handle guard -->
    <rect x="-8" y="12" width="16" height="3" rx="1.5"/>
    <!-- Khanda grip -->
    <rect x="-2.5" y="15" width="5" height="8" rx="1"/>
    <!-- Khanda pommel -->
    <ellipse cx="0" cy="24" rx="4" ry="2.5"/>
  </g>
</svg>
